<svg version="1.1" viewBox="0.0 0.0 578.9475065616798 577.8950131233596" fill="none" stroke="none" stroke-linecap="square" stroke-miterlimit="10" xmlns:xlink="http://www.w3.org/1999/xlink" xmlns="http://www.w3.org/2000/svg"><clipPath id="p.0"><path d="m0 0l578.9475 0l0 577.895l-578.9475 0l0 -577.895z" clip-rule="nonzero"/></clipPath><g clip-path="url(#p.0)"><path fill="#000000" fill-opacity="0.0" d="m0 0l578.9475 0l0 577.895l-578.9475 0z" fill-rule="evenodd"/><path fill="#92f7b7" d="m-0.18815564 288.94687l0 0c0 -159.87556 129.60475 -289.48032 289.4803 -289.48032l0 0c76.77496 0 150.40543 30.498732 204.69351 84.78683c54.288086 54.288086 84.786804 127.91853 84.786804 204.6935l0 0c0 159.87555 -129.60474 289.48032 -289.48032 289.48032l0 0c-159.87555 0 -289.4803 -129.60477 -289.4803 -289.48032z" fill-rule="evenodd"/><path fill="#000000" fill-opacity="0.0" d="m198.64359 328.68677l0 0c-49.88449 -38.67755 -69.73303 -104.74646 -49.423004 -164.512c20.310028 -59.76555 76.30417 -100.06095 139.42581 -100.33584c63.121643 -0.2748909 119.4646 39.531296 140.2944 99.11767c20.829803 59.58638 1.5574341 125.82565 -47.98828 164.93622l-91.661896 -116.118286z" fill-rule="evenodd"/><path fill="#000000" fill-opacity="0.0" d="m198.64359 328.68677l0 0c-49.88449 -38.67755 -69.73303 -104.74646 -49.423004 -164.512c20.310028 -59.76555 76.30417 -100.06095 139.42581 -100.33584c63.121643 -0.2748909 119.4646 39.531296 140.2944 99.11767c20.829803 59.58638 1.5574341 125.82565 -47.98828 164.93622" fill-rule="evenodd"/><path stroke="#000000" stroke-width="16.0" stroke-linejoin="round" stroke-linecap="butt" d="m198.64359 328.68677l0 0c-49.88449 -38.67755 -69.73303 -104.74646 -49.423004 -164.512c20.310028 -59.76555 76.30417 -100.06095 139.42581 -100.33584c63.121643 -0.2748909 119.4646 39.531296 140.2944 99.11767c20.829803 59.58638 1.5574341 125.82565 -47.98828 164.93622" fill-rule="evenodd"/><path fill="#000000" fill-opacity="0.0" d="m221.79396 409.9475l0 0c0 -9.384491 7.6076355 -16.992126 16.992126 -16.992126l101.00789 0c4.506592 0 8.828583 1.7902222 12.015228 4.9768677c3.1866455 3.1866455 4.976898 7.508667 4.976898 12.015259l0 0l0 0c0 9.384491 -7.6076355 16.992126 -16.992126 16.992126l-101.00789 0l0 0c-9.384491 0 -16.992126 -7.6076355 -16.992126 -16.992126z" fill-rule="evenodd"/><path stroke="#000000" stroke-width="16.0" stroke-linejoin="round" stroke-linecap="butt" d="m221.79396 409.9475l0 0c0 -9.384491 7.6076355 -16.992126 16.992126 -16.992126l101.00789 0c4.506592 0 8.828583 1.7902222 12.015228 4.9768677c3.1866455 3.1866455 4.976898 7.508667 4.976898 12.015259l0 0l0 0c0 9.384491 -7.6076355 16.992126 -16.992126 16.992126l-101.00789 0l0 0c-9.384491 0 -16.992126 -7.6076355 -16.992126 -16.992126z" fill-rule="evenodd"/><path fill="#000000" fill-opacity="0.0" d="m221.79396 443.93176l0 0c0 -9.384491 7.6076355 -16.992126 16.992126 -16.992126l101.00789 0c4.506592 0 8.828583 1.7902222 12.015228 4.9768677c3.1866455 3.1866455 4.976898 7.508667 4.976898 12.015259l0 0l0 0c0 9.384491 -7.6076355 16.992126 -16.992126 16.992126l-101.00789 0l0 0c-9.384491 0 -16.992126 -7.6076355 -16.992126 -16.992126z" fill-rule="evenodd"/><path stroke="#000000" stroke-width="16.0" stroke-linejoin="round" stroke-linecap="butt" d="m221.79396 443.93176l0 0c0 -9.384491 7.6076355 -16.992126 16.992126 -16.992126l101.00789 0c4.506592 0 8.828583 1.7902222 12.015228 4.9768677c3.1866455 3.1866455 4.976898 7.508667 4.976898 12.015259l0 0l0 0c0 9.384491 -7.6076355 16.992126 -16.992126 16.992126l-101.00789 0l0 0c-9.384491 0 -16.992126 -7.6076355 -16.992126 -16.992126z" fill-rule="evenodd"/><path fill="#000000" fill-opacity="0.0" d="m221.79396 477.91602l0 0c0 -9.384491 7.6076355 -16.992126 16.992126 -16.992126l101.00789 0c4.506592 0 8.828583 1.7902222 12.015228 4.9768677c3.1866455 3.1866455 4.976898 7.508667 4.976898 12.015259l0 0l0 0c0 9.384491 -7.6076355 16.992126 -16.992126 16.992126l-101.00789 0l0 0c-9.384491 0 -16.992126 -7.6076355 -16.992126 -16.992126z" fill-rule="evenodd"/><path stroke="#000000" stroke-width="16.0" stroke-linejoin="round" stroke-linecap="butt" d="m221.79396 477.91602l0 0c0 -9.384491 7.6076355 -16.992126 16.992126 -16.992126l101.00789 0c4.506592 0 8.828583 1.7902222 12.015228 4.9768677c3.1866455 3.1866455 4.976898 7.508667 4.976898 12.015259l0 0l0 0c0 9.384491 -7.6076355 16.992126 -16.992126 16.992126l-101.00789 0l0 0c-9.384491 0 -16.992126 -7.6076355 -16.992126 -16.992126z" fill-rule="evenodd"/><path fill="#000000" fill-opacity="0.0" d="m218.59808 344.16293l0 0c14.266708 11.060425 22.61583 28.097473 22.61583 46.149414l-58.393707 0z" fill-rule="evenodd"/><path fill="#000000" fill-opacity="0.0" d="m218.59808 344.16293l0 0c14.266708 11.060425 22.61583 28.097473 22.61583 46.149414" fill-rule="evenodd"/><path stroke="#000000" stroke-width="16.0" stroke-linejoin="round" stroke-linecap="butt" d="m218.59808 344.16293l0 0c14.266708 11.060425 22.61583 28.097473 22.61583 46.149414" fill-rule="evenodd"/><path fill="#000000" fill-opacity="0.0" d="m359.92444 344.49554l0 0c-14.015228 11.074371 -22.190857 27.954315 -22.190857 45.816803l58.393707 0z" fill-rule="evenodd"/><path fill="#000000" fill-opacity="0.0" d="m359.92444 344.49554l0 0c-14.015228 11.074371 -22.190857 27.954315 -22.190857 45.816803" fill-rule="evenodd"/><path stroke="#000000" stroke-width="16.0" stroke-linejoin="round" stroke-linecap="butt" d="m359.92444 344.49554l0 0c-14.015228 11.074371 -22.190857 27.954315 -22.190857 45.816803" fill-rule="evenodd"/><path fill="#000000" fill-opacity="0.0" d="m219.58398 344.93176l-23.62204 -18.362213" fill-rule="evenodd"/><path stroke="#000000" stroke-width="16.0" stroke-linejoin="round" stroke-linecap="butt" d="m219.58398 344.93176l-23.62204 -18.362213" fill-rule="evenodd"/><path fill="#000000" fill-opacity="0.0" d="m358.20865 345.86877l24.157501 -19.149628" fill-rule="evenodd"/><path stroke="#000000" stroke-width="16.0" stroke-linejoin="round" stroke-linecap="butt" d="m358.20865 345.86877l24.157501 -19.149628" fill-rule="evenodd"/><path fill="#000000" fill-opacity="0.0" d="m240.54987 494.9076l97.480316 0l0 19.149597l-97.480316 0z" fill-rule="evenodd"/><path stroke="#000000" stroke-width="16.0" stroke-linejoin="round" stroke-linecap="butt" d="m240.54987 494.9076l97.480316 0l0 19.149597l-97.480316 0z" fill-rule="evenodd"/><path fill="#000000" fill-opacity="0.0" d="m265.47507 393.0l0 -141.98425" fill-rule="evenodd"/><path stroke="#000000" stroke-width="16.0" stroke-linejoin="round" stroke-linecap="butt" d="m265.47507 393.0l0 -141.98425" fill-rule="evenodd"/><path fill="#000000" fill-opacity="0.0" d="m313.47507 393.95538l0 -141.98425" fill-rule="evenodd"/><path stroke="#000000" stroke-width="16.0" stroke-linejoin="round" stroke-linecap="butt" d="m313.47507 393.95538l0 -141.98425" fill-rule="evenodd"/><path fill="#000000" fill-opacity="0.0" d="m242.56169 274.98425l0 0c-12.696152 -0.00869751 -22.982178 -10.3064575 -22.976395 -23.002625c0.00579834 -12.696152 10.301224 -22.984528 22.997375 -22.981628c12.696152 0.00289917 22.986877 10.295975 22.986877 22.992126l-22.992126 0z" fill-rule="evenodd"/><path fill="#000000" fill-opacity="0.0" d="m242.56169 274.98425l0 0c-12.696152 -0.00869751 -22.982178 -10.3064575 -22.976395 -23.002625c0.00579834 -12.696152 10.301224 -22.984528 22.997375 -22.981628c12.696152 0.00289917 22.986877 10.295975 22.986877 22.992126" fill-rule="evenodd"/><path stroke="#000000" stroke-width="16.0" stroke-linejoin="round" stroke-linecap="butt" d="m242.56169 274.98425l0 0c-12.696152 -0.00869751 -22.982178 -10.3064575 -22.976395 -23.002625c0.00579834 -12.696152 10.301224 -22.984528 22.997375 -22.981628c12.696152 0.00289917 22.986877 10.295975 22.986877 22.992126" fill-rule="evenodd"/><path fill="#000000" fill-opacity="0.0" d="m336.5616 274.98407l0 0c12.685791 -0.052124023 22.932343 -10.369019 22.897614 -23.054886c-0.034729004 -12.685867 -10.337616 -22.946533 -23.023499 -22.929169c-12.685913 0.01737976 -22.960663 10.306198 -22.960663 22.992111l22.992126 0z" fill-rule="evenodd"/><path fill="#000000" fill-opacity="0.0" d="m336.5616 274.98407l0 0c12.685791 -0.052124023 22.932343 -10.369019 22.897614 -23.054886c-0.034729004 -12.685867 -10.337616 -22.946533 -23.023499 -22.929169c-12.685913 0.01737976 -22.960663 10.306198 -22.960663 22.992111" fill-rule="evenodd"/><path stroke="#000000" stroke-width="16.0" stroke-linejoin="round" stroke-linecap="butt" d="m336.5616 274.98407l0 0c12.685791 -0.052124023 22.932343 -10.369019 22.897614 -23.054886c-0.034729004 -12.685867 -10.337616 -22.946533 -23.023499 -22.929169c-12.685913 0.01737976 -22.960663 10.306198 -22.960663 22.992111" fill-rule="evenodd"/><path fill="#000000" fill-opacity="0.0" d="m242.37386 274.98425l94.267715 0" fill-rule="evenodd"/><path stroke="#000000" stroke-width="16.0" stroke-linejoin="round" stroke-linecap="butt" d="m242.37386 274.98425l94.267715 0" fill-rule="evenodd"/></g></svg>