<svg version="1.1" viewBox="0.0 0.0 578.9475065616798 577.8950131233596" fill="none" stroke="none" stroke-linecap="square" stroke-miterlimit="10" xmlns:xlink="http://www.w3.org/1999/xlink" xmlns="http://www.w3.org/2000/svg"><clipPath id="p.0"><path d="m0 0l578.9475 0l0 577.895l-578.9475 0l0 -577.895z" clip-rule="nonzero"/></clipPath><g clip-path="url(#p.0)"><path fill="#000000" fill-opacity="0.0" d="m0 0l578.9475 0l0 577.895l-578.9475 0z" fill-rule="evenodd"/><path fill="#fdbefb" d="m0 289.48032l0 0c0 -159.87556 129.60475 -289.48032 289.48032 -289.48032l0 0c76.77496 0 150.4054 30.498732 204.69348 84.78682c54.288116 54.288086 84.786835 127.91855 84.786835 204.6935l0 0c0 159.87555 -129.60477 289.48032 -289.48032 289.48032l0 0c-159.87556 0 -289.48032 -129.60477 -289.48032 -289.48032z" fill-rule="evenodd"/><path fill="#000000" fill-opacity="0.0" d="m91.31423 441.39453l0 0c-34.52433 -25.080414 -49.004093 -69.51871 -35.88278 -110.12399c13.121319 -40.605286 50.867428 -68.167145 93.53989 -68.30197c42.67247 -0.13482666 80.591995 27.187988 93.96962 67.70953c13.37764 40.521545 -0.82102966 85.050446 -35.186188 110.34854l-58.471817 -79.42865z" fill-rule="evenodd"/><path fill="#000000" fill-opacity="0.0" d="m91.31423 441.39453l0 0c-34.52433 -25.080414 -49.004093 -69.51871 -35.88278 -110.12399c13.121319 -40.605286 50.867428 -68.167145 93.53989 -68.30197c42.67247 -0.13482666 80.591995 27.187988 93.96962 67.70953c13.37764 40.521545 -0.82102966 85.050446 -35.186188 110.34854" fill-rule="evenodd"/><path stroke="#000000" stroke-width="16.0" stroke-linejoin="round" stroke-linecap="butt" d="m91.31423 441.39453l0 0c-34.52433 -25.080414 -49.004093 -69.51871 -35.88278 -110.12399c13.121319 -40.605286 50.867428 -68.167145 93.53989 -68.30197c42.67247 -0.13482666 80.591995 27.187988 93.96962 67.70953c13.37764 40.521545 -0.82102966 85.050446 -35.186188 110.34854" fill-rule="evenodd"/><path fill="#000000" fill-opacity="0.0" d="m82.77592 438.68402l0 0c37.666344 -34.394714 95.343895 -34.395752 133.01147 -0.0024108887l-66.504425 72.8356z" fill-rule="evenodd"/><path fill="#000000" fill-opacity="0.0" d="m82.77592 438.68402l0 0c37.666344 -34.394714 95.343895 -34.395752 133.01147 -0.0024108887" fill-rule="evenodd"/><path stroke="#000000" stroke-width="16.0" stroke-linejoin="round" stroke-linecap="butt" d="m82.77592 438.68402l0 0c37.666344 -34.394714 95.343895 -34.395752 133.01147 -0.0024108887" fill-rule="evenodd"/><path fill="#000000" fill-opacity="0.0" d="m105.51367 344.1947l0 0c0 -24.178772 19.600761 -43.77954 43.779526 -43.77954l0 0c11.611053 0 22.746552 4.612488 30.956802 12.822723c8.210251 8.210266 12.822723 19.345764 12.822723 30.956818l0 0c0 24.178772 -19.600754 43.77954 -43.779526 43.77954l0 0c-24.178764 0 -43.779526 -19.600769 -43.779526 -43.77954z" fill-rule="evenodd"/><path stroke="#000000" stroke-width="16.0" stroke-linejoin="round" stroke-linecap="butt" d="m105.51367 344.1947l0 0c0 -24.178772 19.600761 -43.77954 43.779526 -43.77954l0 0c11.611053 0 22.746552 4.612488 30.956802 12.822723c8.210251 8.210266 12.822723 19.345764 12.822723 30.956818l0 0c0 24.178772 -19.600754 43.77954 -43.779526 43.77954l0 0c-24.178764 0 -43.779526 -19.600769 -43.779526 -43.77954z" fill-rule="evenodd"/><path fill="#000000" fill-opacity="0.0" d="m261.74304 216.11418l0 0c0 -41.643143 33.758453 -75.40158 75.40158 -75.40158l0 0c19.997742 0 39.176422 7.9440765 53.316956 22.08461c14.140564 14.140549 22.084625 33.31923 22.084625 53.31697l0 0c0 41.643143 -33.758423 75.401566 -75.40158 75.401566l0 0c-41.643127 0 -75.40158 -33.758423 -75.40158 -75.401566z" fill-rule="evenodd"/><path stroke="#000000" stroke-width="16.0" stroke-linejoin="round" stroke-linecap="butt" d="m261.74304 216.11418l0 0c0 -41.643143 33.758453 -75.40158 75.40158 -75.40158l0 0c19.997742 0 39.176422 7.9440765 53.316956 22.08461c14.140564 14.140549 22.084625 33.31923 22.084625 53.31697l0 0c0 41.643143 -33.758423 75.401566 -75.40158 75.401566l0 0c-41.643127 0 -75.40158 -33.758423 -75.40158 -75.401566z" fill-rule="evenodd"/><path fill="#000000" fill-opacity="0.0" d="m284.27856 378.77643l0 0c0 -21.856567 17.718262 -39.5748 39.5748 -39.5748l0 0c10.495911 0 20.56192 4.169464 27.983612 11.591187c7.4217224 7.4217224 11.591187 17.487732 11.591187 27.983612l0 0c0 21.856567 -17.718231 39.5748 -39.5748 39.5748l0 0c-21.856537 0 -39.5748 -17.718231 -39.5748 -39.5748z" fill-rule="evenodd"/><path stroke="#000000" stroke-width="16.0" stroke-linejoin="round" stroke-linecap="butt" d="m284.27856 378.77643l0 0c0 -21.856567 17.718262 -39.5748 39.5748 -39.5748l0 0c10.495911 0 20.56192 4.169464 27.983612 11.591187c7.4217224 7.4217224 11.591187 17.487732 11.591187 27.983612l0 0c0 21.856567 -17.718231 39.5748 -39.5748 39.5748l0 0c-21.856537 0 -39.5748 -17.718231 -39.5748 -39.5748z" fill-rule="evenodd"/><path fill="#000000" fill-opacity="0.0" d="m433.69797 290.91516l0 0c8.045105 -30.006042 38.891632 -47.808884 68.897644 -39.763794l0 0c14.409393 3.863388 26.69394 13.292664 34.151093 26.21347c7.4571533 12.920807 9.476074 28.27478 5.612671 42.684174l0 0c-8.045044 30.006012 -38.8916 47.80887 -68.89761 39.763763l0 0c-30.006012 -8.045074 -47.80887 -38.8916 -39.763794 -68.89761z" fill-rule="evenodd"/><path stroke="#000000" stroke-width="16.0" stroke-linejoin="round" stroke-linecap="butt" d="m433.69797 290.91516l0 0c8.045105 -30.006042 38.891632 -47.808884 68.897644 -39.763794l0 0c14.409393 3.863388 26.69394 13.292664 34.151093 26.21347c7.4571533 12.920807 9.476074 28.27478 5.612671 42.684174l0 0c-8.045044 30.006012 -38.8916 47.80887 -68.89761 39.763763l0 0c-30.006012 -8.045074 -47.80887 -38.8916 -39.763794 -68.89761z" fill-rule="evenodd"/><path fill="#000000" fill-opacity="0.0" d="m113.19359 129.01503l0 0c8.045097 -30.006027 38.891617 -47.808876 68.897644 -39.763786l0 0c14.409393 3.8633957 26.693893 13.292656 34.151062 26.21347c7.4571533 12.9208145 9.476105 28.274773 5.6127167 42.684166l0 0c-8.04509 30.006027 -38.891617 47.808884 -68.897644 39.76378l0 0c-30.00602 -8.04509 -47.80887 -38.891617 -39.76378 -68.89763z" fill-rule="evenodd"/><path stroke="#000000" stroke-width="16.0" stroke-linejoin="round" stroke-linecap="butt" d="m113.19359 129.01503l0 0c8.045097 -30.006027 38.891617 -47.808876 68.897644 -39.763786l0 0c14.409393 3.8633957 26.693893 13.292656 34.151062 26.21347c7.4571533 12.9208145 9.476105 28.274773 5.6127167 42.684166l0 0c-8.04509 30.006027 -38.891617 47.808884 -68.897644 39.76378l0 0c-30.00602 -8.04509 -47.80887 -38.891617 -39.76378 -68.89763z" fill-rule="evenodd"/><path fill="#000000" fill-opacity="0.0" d="m283.82767 269.43115l-47.2126 47.212585" fill-rule="evenodd"/><path stroke="#000000" stroke-width="16.0" stroke-linejoin="round" stroke-linecap="butt" d="m283.82767 269.43115l-47.2126 47.212585" fill-rule="evenodd"/><path fill="#000000" fill-opacity="0.0" d="m283.82767 162.79721l-61.984253 -4.6614075" fill-rule="evenodd"/><path stroke="#000000" stroke-width="16.0" stroke-linejoin="round" stroke-linecap="butt" d="m283.82767 162.79721l-61.984253 -4.6614075" fill-rule="evenodd"/><path fill="#000000" fill-opacity="0.0" d="m337.14462 291.51575l-13.291321 47.68506" fill-rule="evenodd"/><path stroke="#000000" stroke-width="16.0" stroke-linejoin="round" stroke-linecap="butt" d="m337.14462 291.51575l-13.291321 47.68506" fill-rule="evenodd"/><path fill="#000000" fill-opacity="0.0" d="m459.91144 256.7641l-47.370056 -40.661423" fill-rule="evenodd"/><path stroke="#000000" stroke-width="16.0" stroke-linejoin="round" stroke-linecap="butt" d="m459.91144 256.7641l-47.370056 -40.661423" fill-rule="evenodd"/></g></svg>