<svg version="1.1" viewBox="0.0 0.0 578.9475065616798 577.8950131233596" fill="none" stroke="none" stroke-linecap="square" stroke-miterlimit="10" xmlns:xlink="http://www.w3.org/1999/xlink" xmlns="http://www.w3.org/2000/svg"><clipPath id="p.0"><path d="m0 0l578.9475 0l0 577.895l-578.9475 0l0 -577.895z" clip-rule="nonzero"/></clipPath><g clip-path="url(#p.0)"><path fill="#000000" fill-opacity="0.0" d="m0 0l578.9475 0l0 577.895l-578.9475 0z" fill-rule="evenodd"/><path fill="#71a2f1" d="m8.207349E-4 289.4823l0 0c0 -159.87556 129.60475 -289.48032 289.48032 -289.48032l0 0c76.77496 0 150.4054 30.498732 204.69348 84.78682c54.288086 54.288086 84.786804 127.91853 84.786804 204.6935l0 0c0 159.87555 -129.60474 289.4803 -289.4803 289.4803l0 0c-159.87556 0 -289.48032 -129.60474 -289.48032 -289.4803z" fill-rule="evenodd"/><path fill="#000000" fill-opacity="0.0" d="m286.1608 153.15683l0 0c33.013275 -33.636826 81.5025 -47.0355 127.10257 -35.121315c45.600037 11.914177 81.33801 47.319374 93.67828 92.80598c12.340271 45.486603 -0.6042175 94.09906 -33.930725 127.42557l-92.99213 -92.99213z" fill-rule="evenodd"/><path fill="#000000" fill-opacity="0.0" d="m286.1608 153.15683l0 0c33.013275 -33.636826 81.5025 -47.0355 127.10257 -35.121315c45.600037 11.914177 81.33801 47.319374 93.67828 92.80598c12.340271 45.486603 -0.6042175 94.09906 -33.930725 127.42557" fill-rule="evenodd"/><path stroke="#000000" stroke-width="16.0" stroke-linejoin="round" stroke-linecap="butt" d="m286.1608 153.15683l0 0c33.013275 -33.636826 81.5025 -47.0355 127.10257 -35.121315c45.600037 11.914177 81.33801 47.319374 93.67828 92.80598c12.340271 45.486603 -0.6042175 94.09906 -33.930725 127.42557" fill-rule="evenodd"/><path fill="#000000" fill-opacity="0.0" d="m106.81257 340.09042l0 0c-33.636826 -33.013306 -47.035496 -81.50253 -35.121315 -127.102585c11.914185 -45.60005 47.319374 -81.33803 92.80597 -93.67828c45.486603 -12.340256 94.09906 0.6042099 127.42557 33.930725l-92.99211 92.99213z" fill-rule="evenodd"/><path fill="#000000" fill-opacity="0.0" d="m106.81257 340.09042l0 0c-33.636826 -33.013306 -47.035496 -81.50253 -35.121315 -127.102585c11.914185 -45.60005 47.319374 -81.33803 92.80597 -93.67828c45.486603 -12.340256 94.09906 0.6042099 127.42557 33.930725" fill-rule="evenodd"/><path stroke="#000000" stroke-width="16.0" stroke-linejoin="round" stroke-linecap="butt" d="m106.81257 340.09042l0 0c-33.636826 -33.013306 -47.035496 -81.50253 -35.121315 -127.102585c11.914185 -45.60005 47.319374 -81.33803 92.80597 -93.67828c45.486603 -12.340256 94.09906 0.6042099 127.42557 33.930725" fill-rule="evenodd"/><path fill="#000000" fill-opacity="0.0" d="m106.81257 340.09042l183.52756 183.52756" fill-rule="evenodd"/><path stroke="#000000" stroke-width="16.0" stroke-linejoin="round" stroke-linecap="butt" d="m106.81257 340.09042l183.52756 183.52756" fill-rule="evenodd"/><path fill="#000000" fill-opacity="0.0" d="m294.2376 145.6014l-59.653534 59.653534" fill-rule="evenodd"/><path stroke="#000000" stroke-width="16.0" stroke-linejoin="round" stroke-linecap="butt" d="m294.2376 145.6014l-59.653534 59.653534" fill-rule="evenodd"/><path fill="#000000" fill-opacity="0.0" d="m288.60538 258.46317l0 0c-9.554382 9.601807 -23.508392 13.371674 -36.598114 9.887451c-13.089722 -3.4842224 -23.32309 -13.692291 -26.839737 -26.773346c-3.516632 -13.081055 0.21864319 -27.044357 9.796768 -36.622482l26.787384 26.7874z" fill-rule="evenodd"/><path fill="#000000" fill-opacity="0.0" d="m288.60538 258.46317l0 0c-9.554382 9.601807 -23.508392 13.371674 -36.598114 9.887451c-13.089722 -3.4842224 -23.32309 -13.692291 -26.839737 -26.773346c-3.516632 -13.081055 0.21864319 -27.044357 9.796768 -36.622482" fill-rule="evenodd"/><path stroke="#000000" stroke-width="16.0" stroke-linejoin="round" stroke-linecap="butt" d="m288.60538 258.46317l0 0c-9.554382 9.601807 -23.508392 13.371674 -36.598114 9.887451c-13.089722 -3.4842224 -23.32309 -13.692291 -26.839737 -26.773346c-3.516632 -13.081055 0.21864319 -27.044357 9.796768 -36.622482" fill-rule="evenodd"/><path fill="#000000" fill-opacity="0.0" d="m288.60538 258.46317l52.503937 -52.503952" fill-rule="evenodd"/><path stroke="#000000" stroke-width="16.0" stroke-linejoin="round" stroke-linecap="butt" d="m288.60538 258.46317l52.503937 -52.503952" fill-rule="evenodd"/><path fill="#000000" fill-opacity="0.0" d="m470.73962 339.8932l-137.44882 -137.4488" fill-rule="evenodd"/><path stroke="#000000" stroke-width="16.0" stroke-linejoin="round" stroke-linecap="butt" d="m470.73962 339.8932l-137.44882 -137.4488" fill-rule="evenodd"/><path fill="#000000" fill-opacity="0.0" d="m248.53773 299.17984l131.81102 131.81104" fill-rule="evenodd"/><path stroke="#000000" stroke-width="16.0" stroke-linejoin="round" stroke-linecap="butt" d="m248.53773 299.17984l131.81102 131.81104" fill-rule="evenodd"/><path fill="#000000" fill-opacity="0.0" d="m296.57312 256.0966l131.81104 131.81104" fill-rule="evenodd"/><path stroke="#000000" stroke-width="16.0" stroke-linejoin="round" stroke-linecap="butt" d="m296.57312 256.0966l131.81104 131.81104" fill-rule="evenodd"/><path fill="#000000" fill-opacity="0.0" d="m202.70842 345.00806l131.81102 131.811" fill-rule="evenodd"/><path stroke="#000000" stroke-width="16.0" stroke-linejoin="round" stroke-linecap="butt" d="m202.70842 345.00806l131.81102 131.811" fill-rule="evenodd"/><path fill="#000000" fill-opacity="0.0" d="m469.74097 338.85464l0 0c8.536682 8.003418 12.056305 20.009888 9.191711 31.35553c-2.864624 11.345642 -11.661957 20.242249 -22.974762 23.233978c-11.312775 2.9916992 -23.357971 -0.39297485 -31.456665 -8.839325l23.228912 -22.272858z" fill-rule="evenodd"/><path fill="#000000" fill-opacity="0.0" d="m469.74097 338.85464l0 0c8.536682 8.003418 12.056305 20.009888 9.191711 31.35553c-2.864624 11.345642 -11.661957 20.242249 -22.974762 23.233978c-11.312775 2.9916992 -23.357971 -0.39297485 -31.456665 -8.839325" fill-rule="evenodd"/><path stroke="#000000" stroke-width="16.0" stroke-linejoin="round" stroke-linecap="butt" d="m469.74097 338.85464l0 0c8.536682 8.003418 12.056305 20.009888 9.191711 31.35553c-2.864624 11.345642 -11.661957 20.242249 -22.974762 23.233978c-11.312775 2.9916992 -23.357971 -0.39297485 -31.456665 -8.839325" fill-rule="evenodd"/><path fill="#000000" fill-opacity="0.0" d="m424.24023 384.35538l0 0c8.602478 8.0651245 12.105133 20.189178 9.12912 31.599365c-2.9760437 11.410156 -11.954132 20.278961 -23.399872 23.115051c-11.44574 2.83609 -23.526031 -0.8147888 -31.485199 -9.515381l23.745117 -21.72168z" fill-rule="evenodd"/><path fill="#000000" fill-opacity="0.0" d="m424.24023 384.35538l0 0c8.602478 8.0651245 12.105133 20.189178 9.12912 31.599365c-2.9760437 11.410156 -11.954132 20.278961 -23.399872 23.115051c-11.44574 2.83609 -23.526031 -0.8147888 -31.485199 -9.515381" fill-rule="evenodd"/><path stroke="#000000" stroke-width="16.0" stroke-linejoin="round" stroke-linecap="butt" d="m424.24023 384.35538l0 0c8.602478 8.0651245 12.105133 20.189178 9.12912 31.599365c-2.9760437 11.410156 -11.954132 20.278961 -23.399872 23.115051c-11.44574 2.83609 -23.526031 -0.8147888 -31.485199 -9.515381" fill-rule="evenodd"/><path fill="#000000" fill-opacity="0.0" d="m378.74042 429.8552l0 0c8.602478 8.0651245 12.105133 20.189178 9.12912 31.599335c-2.9760437 11.410187 -11.954132 20.278992 -23.399872 23.115082c-11.44574 2.83609 -23.526031 -0.8147888 -31.485199 -9.515381l23.745117 -21.72168z" fill-rule="evenodd"/><path fill="#000000" fill-opacity="0.0" d="m378.74042 429.8552l0 0c8.602478 8.0651245 12.105133 20.189178 9.12912 31.599335c-2.9760437 11.410187 -11.954132 20.278992 -23.399872 23.115082c-11.44574 2.83609 -23.526031 -0.8147888 -31.485199 -9.515381" fill-rule="evenodd"/><path stroke="#000000" stroke-width="16.0" stroke-linejoin="round" stroke-linecap="butt" d="m378.74042 429.8552l0 0c8.602478 8.0651245 12.105133 20.189178 9.12912 31.599335c-2.9760437 11.410187 -11.954132 20.278992 -23.399872 23.115082c-11.44574 2.83609 -23.526031 -0.8147888 -31.485199 -9.515381" fill-rule="evenodd"/><path fill="#000000" fill-opacity="0.0" d="m333.2406 475.355l0 0c8.602478 8.0651245 12.105133 20.189178 9.12912 31.599335c-2.9760437 11.410156 -11.954132 20.278992 -23.399872 23.115051c-11.44574 2.8361206 -23.526031 -0.8147583 -31.485199 -9.515381l23.745148 -21.72165z" fill-rule="evenodd"/><path fill="#000000" fill-opacity="0.0" d="m333.2406 475.355l0 0c8.602478 8.0651245 12.105133 20.189178 9.12912 31.599335c-2.9760437 11.410156 -11.954132 20.278992 -23.399872 23.115051c-11.44574 2.8361206 -23.526031 -0.8147583 -31.485199 -9.515381" fill-rule="evenodd"/><path stroke="#000000" stroke-width="16.0" stroke-linejoin="round" stroke-linecap="butt" d="m333.2406 475.355l0 0c8.602478 8.0651245 12.105133 20.189178 9.12912 31.599335c-2.9760437 11.410156 -11.954132 20.278992 -23.399872 23.115051c-11.44574 2.8361206 -23.526031 -0.8147583 -31.485199 -9.515381" fill-rule="evenodd"/><path fill="#000000" fill-opacity="0.0" d="m283.6848 522.09314l0 0c-8.003418 8.536682 -20.009888 12.056274 -31.35553 9.191711c-11.345642 -2.864624 -20.242249 -11.661987 -23.233978 -22.974762c-2.9917297 -11.312805 0.39297485 -23.358002 8.83931 -31.456696l22.272842 23.228912z" fill-rule="evenodd"/><path fill="#000000" fill-opacity="0.0" d="m283.6848 522.09314l0 0c-8.003418 8.536682 -20.009888 12.056274 -31.35553 9.191711c-11.345642 -2.864624 -20.242249 -11.661987 -23.233978 -22.974762c-2.9917297 -11.312805 0.39297485 -23.358002 8.83931 -31.456696" fill-rule="evenodd"/><path stroke="#000000" stroke-width="16.0" stroke-linejoin="round" stroke-linecap="butt" d="m283.6848 522.09314l0 0c-8.003418 8.536682 -20.009888 12.056274 -31.35553 9.191711c-11.345642 -2.864624 -20.242249 -11.661987 -23.233978 -22.974762c-2.9917297 -11.312805 0.39297485 -23.358002 8.83931 -31.456696" fill-rule="evenodd"/><path fill="#000000" fill-opacity="0.0" d="m238.18407 476.59238l0 0c-8.065109 8.602478 -20.189178 12.105164 -31.59935 9.12912c-11.410156 -2.9760132 -20.278976 -11.954102 -23.115051 -23.399872c-2.83609 -11.44574 0.8147888 -23.526031 9.515381 -31.485199l21.72168 23.745148z" fill-rule="evenodd"/><path fill="#000000" fill-opacity="0.0" d="m238.18407 476.59238l0 0c-8.065109 8.602478 -20.189178 12.105164 -31.59935 9.12912c-11.410156 -2.9760132 -20.278976 -11.954102 -23.115051 -23.399872c-2.83609 -11.44574 0.8147888 -23.526031 9.515381 -31.485199" fill-rule="evenodd"/><path stroke="#000000" stroke-width="16.0" stroke-linejoin="round" stroke-linecap="butt" d="m238.18407 476.59238l0 0c-8.065109 8.602478 -20.189178 12.105164 -31.59935 9.12912c-11.410156 -2.9760132 -20.278976 -11.954102 -23.115051 -23.399872c-2.83609 -11.44574 0.8147888 -23.526031 9.515381 -31.485199" fill-rule="evenodd"/><path fill="#000000" fill-opacity="0.0" d="m192.68427 431.09256l0 0c-8.0651245 8.602478 -20.189194 12.105164 -31.599365 9.12912c-11.410156 -2.9760132 -20.278976 -11.954102 -23.115051 -23.399872c-2.83609 -11.44574 0.8147888 -23.526001 9.515381 -31.485168l21.72168 23.745117z" fill-rule="evenodd"/><path fill="#000000" fill-opacity="0.0" d="m192.68427 431.09256l0 0c-8.0651245 8.602478 -20.189194 12.105164 -31.599365 9.12912c-11.410156 -2.9760132 -20.278976 -11.954102 -23.115051 -23.399872c-2.83609 -11.44574 0.8147888 -23.526001 9.515381 -31.485168" fill-rule="evenodd"/><path stroke="#000000" stroke-width="16.0" stroke-linejoin="round" stroke-linecap="butt" d="m192.68427 431.09256l0 0c-8.0651245 8.602478 -20.189194 12.105164 -31.599365 9.12912c-11.410156 -2.9760132 -20.278976 -11.954102 -23.115051 -23.399872c-2.83609 -11.44574 0.8147888 -23.526001 9.515381 -31.485168" fill-rule="evenodd"/><path fill="#000000" fill-opacity="0.0" d="m147.18445 385.59277l0 0c-8.0651245 8.6024475 -20.189194 12.105133 -31.599358 9.129089c-11.4101715 -2.9760132 -20.278976 -11.954102 -23.115059 -23.399872c-2.8360825 -11.44574 0.8147888 -23.526001 9.515373 -31.485168l21.72168 23.745117z" fill-rule="evenodd"/><path fill="#000000" fill-opacity="0.0" d="m147.18445 385.59277l0 0c-8.0651245 8.6024475 -20.189194 12.105133 -31.599358 9.129089c-11.4101715 -2.9760132 -20.278976 -11.954102 -23.115059 -23.399872c-2.8360825 -11.44574 0.8147888 -23.526001 9.515373 -31.485168" fill-rule="evenodd"/><path stroke="#000000" stroke-width="16.0" stroke-linejoin="round" stroke-linecap="butt" d="m147.18445 385.59277l0 0c-8.0651245 8.6024475 -20.189194 12.105133 -31.599358 9.129089c-11.4101715 -2.9760132 -20.278976 -11.954102 -23.115059 -23.399872c-2.8360825 -11.44574 0.8147888 -23.526001 9.515373 -31.485168" fill-rule="evenodd"/></g></svg>