<svg version="1.1" viewBox="0.0 0.0 576.0 576.0" fill="none" stroke="none" stroke-linecap="square" stroke-miterlimit="10" xmlns:xlink="http://www.w3.org/1999/xlink" xmlns="http://www.w3.org/2000/svg"><clipPath id="p.0"><path d="m0 0l576.0 0l0 576.0l-576.0 0l0 -576.0z" clip-rule="nonzero"/></clipPath><g clip-path="url(#p.0)"><path fill="#000000" fill-opacity="0.0" d="m0 0l576.0 0l0 576.0l-576.0 0z" fill-rule="evenodd"/><path fill="#71a2f1" d="m-1.4794942 287.99936l0 0c0 -159.87556 129.60475 -289.48032 289.48032 -289.48032l0 0c76.77496 0 150.4054 30.498732 204.69348 84.78682c54.288116 54.288086 84.786835 127.91855 84.786835 204.6935l0 0c0 159.87555 -129.60477 289.48032 -289.48032 289.48032l0 0c-159.87556 0 -289.48032 -129.60477 -289.48032 -289.48032z" fill-rule="evenodd"/><path fill="#000000" fill-opacity="0.0" d="m80.34646 249.32283l0 0c0 -90.14853 43.558815 -163.22833 97.29134 -163.22833l0 0c25.803253 0 50.549698 17.19722 68.795364 47.80848c18.245667 30.611252 28.495972 72.12901 28.495972 115.41986l0 0c0 90.148544 -43.558823 163.22835 -97.291336 163.22835l0 0c-53.73253 0 -97.29134 -73.0798 -97.29134 -163.22835z" fill-rule="evenodd"/><path stroke="#000000" stroke-width="16.0" stroke-linejoin="round" stroke-linecap="butt" d="m80.34646 249.32283l0 0c0 -90.14853 43.558815 -163.22833 97.29134 -163.22833l0 0c25.803253 0 50.549698 17.19722 68.795364 47.80848c18.245667 30.611252 28.495972 72.12901 28.495972 115.41986l0 0c0 90.148544 -43.558823 163.22835 -97.291336 163.22835l0 0c-53.73253 0 -97.29134 -73.0798 -97.29134 -163.22835z" fill-rule="evenodd"/><path fill="#000000" fill-opacity="0.0" d="m147.85826 249.55249l0 0c0 -27.457687 13.332748 -49.716537 29.779541 -49.716537l0 0c7.8980103 0 15.472549 5.237976 21.057297 14.5616455c5.5847473 9.323654 8.722229 21.969254 8.722229 35.154892l0 0c0 27.457703 -13.332748 49.716553 -29.779526 49.716553l0 0c-16.446793 0 -29.779541 -22.25885 -29.779541 -49.716553z" fill-rule="evenodd"/><path stroke="#000000" stroke-width="16.0" stroke-linejoin="round" stroke-linecap="butt" d="m147.85826 249.55249l0 0c0 -27.457687 13.332748 -49.716537 29.779541 -49.716537l0 0c7.8980103 0 15.472549 5.237976 21.057297 14.5616455c5.5847473 9.323654 8.722229 21.969254 8.722229 35.154892l0 0c0 27.457703 -13.332748 49.716553 -29.779526 49.716553l0 0c-16.446793 0 -29.779541 -22.25885 -29.779541 -49.716553z" fill-rule="evenodd"/><path fill="#000000" fill-opacity="0.0" d="m221.04388 395.27942l0 0c63.48413 -48.78714 148.44641 -76.08194 236.89243 -76.103546l0.105041504 269.65353z" fill-rule="evenodd"/><path fill="#000000" fill-opacity="0.0" d="m221.04388 395.27942l0 0c63.48413 -48.78714 148.44641 -76.08194 236.89243 -76.103546" fill-rule="evenodd"/><path stroke="#000000" stroke-width="16.0" stroke-linejoin="round" stroke-linecap="butt" d="m221.04388 395.27942l0 0c63.48413 -48.78714 148.44641 -76.08194 236.89243 -76.103546" fill-rule="evenodd"/><path fill="#000000" fill-opacity="0.0" d="m217.06824 100.07207c63.91104 51.098007 150.94418 79.84779 241.74539 79.85611l0.039398193 -269.65353z" fill-rule="evenodd"/><path fill="#000000" fill-opacity="0.0" d="m217.06824 100.07207c63.91104 51.098007 150.94418 79.84779 241.74539 79.85611" fill-rule="evenodd"/><path stroke="#000000" stroke-width="16.0" stroke-linejoin="round" stroke-linecap="butt" d="m217.06824 100.07207c63.91104 51.098007 150.94418 79.84779 241.74539 79.85611" fill-rule="evenodd"/><path fill="#000000" fill-opacity="0.0" d="m457.78577 179.92914l0 0c23.022186 0 41.69217 31.125992 41.71649 69.548416c0.024353027 38.42241 -18.60614 69.61424 -41.628265 69.69551l-0.08822632 -69.62189z" fill-rule="evenodd"/><path fill="#000000" fill-opacity="0.0" d="m457.78577 179.92914l0 0c23.022186 0 41.69217 31.125992 41.71649 69.548416c0.024353027 38.42241 -18.60614 69.61424 -41.628265 69.69551" fill-rule="evenodd"/><path stroke="#000000" stroke-width="16.0" stroke-linejoin="round" stroke-linecap="butt" d="m457.78577 179.92914l0 0c23.022186 0 41.69217 31.125992 41.71649 69.548416c0.024353027 38.42241 -18.60614 69.61424 -41.628265 69.69551" fill-rule="evenodd"/><path fill="#000000" fill-opacity="0.0" d="m177.6378 199.83595l94.17323 11.968506" fill-rule="evenodd"/><path stroke="#000000" stroke-width="16.0" stroke-linejoin="round" stroke-linecap="butt" d="m177.6378 199.83595l94.17323 11.968506" fill-rule="evenodd"/><path fill="#000000" fill-opacity="0.0" d="m177.6378 299.26904l95.08659 -8.346466" fill-rule="evenodd"/><path stroke="#000000" stroke-width="16.0" stroke-linejoin="round" stroke-linecap="butt" d="m177.6378 299.26904l95.08659 -8.346466" fill-rule="evenodd"/><path fill="#000000" fill-opacity="0.0" d="m436.3622 319.17584l-34.874023 130.15488l-56.94226 4.3910522l35.283478 -131.68503" fill-rule="evenodd"/><path stroke="#000000" stroke-width="16.0" stroke-linejoin="round" stroke-linecap="butt" d="m436.3622 319.17584l-34.874023 130.15488l-56.94226 4.3910522l35.283478 -131.68503" fill-rule="evenodd"/><path fill="#000000" fill-opacity="0.0" d="m345.45407 454.08923l-27.27298 -12.72702l28.863525 -107.38583" fill-rule="evenodd"/><path stroke="#000000" stroke-width="16.0" stroke-linejoin="round" stroke-linecap="butt" d="m345.45407 454.08923l-27.27298 -12.72702l28.863525 -107.38583" fill-rule="evenodd"/></g></svg>